<?xml version="1.0" encoding="UTF-8"?>
<svg cursor="pointer" style="height:26.7184px;left:50%;position:absolute;top:50%;transform:translate(-50%, -50%) scale(1);width:350.21px;z-index:0" viewBox="0 0 350.21 26.718" xmlns="http://www.w3.org/2000/svg">
<defs>
<linearGradient id="a">
<stop stop-color="#2d388a" offset="0"/>
<stop stop-color="#00aeef" offset="1"/>
</linearGradient>
</defs>
<g transform="matrix(.43801 0 0 .43801 -3.9421 -8.3221)" fill="url(#a)" featurekey="UqkkrJ-0">
<path d="m90 19h-81v47h35v12h-14v2h39v-2h-15v-12h36v-47zm-2 45h-77v-2.544l4.921-3.466c0.281 0.234 0.792 0.375 1.187 0.375 0.897 0 1.699-0.727 1.699-1.624 0-0.448-0.144-0.853-0.437-1.147l2.689-3.466c0.219 0.11 0.475 0.174 0.737 0.174 0.18 0 0.357-0.03 0.519-0.084l2.647 5.568c-0.279 0.292-0.451 0.686-0.451 1.122 0 0.897 0.728 1.624 1.625 1.624s1.625-0.727 1.625-1.624c0-0.276-0.069-0.536-0.191-0.764l0.806-0.78c0.277 0.22 0.628 0.353 1.009 0.353 0.235 0 0.457-0.051 0.658-0.14l0.739 1.108c-0.262 0.288-0.422 0.67-0.422 1.09 0 0.897 0.727 1.624 1.624 1.624s1.624-0.727 1.624-1.624c0-0.273-0.068-0.53-0.187-0.755l6.757-5.865c0.291 0.277 0.684 0.448 1.118 0.448 0.228 0 0.445-0.048 0.642-0.132l1.217 1.718c-0.279 0.292-0.451 0.686-0.451 1.122 0 0.897 0.727 1.624 1.624 1.624s1.624-0.727 1.624-1.624c0-0.354-0.115-0.681-0.307-0.948l0.889-1.12c0.242 0.144 0.524 0.227 0.826 0.227 0.101 0 0.199-0.01 0.295-0.028l1.012 2.603c-0.336 0.298-0.549 0.731-0.549 1.215 0 0.897 0.727 1.624 1.624 1.624s1.624-0.727 1.624-1.624c0-0.392-0.139-0.751-0.369-1.031l11.634-15.724c0.226 0.119 0.482 0.187 0.755 0.187 0.241 0 0.468-0.054 0.674-0.148l2.616 4.644c-0.229 0.28-0.366 0.637-0.366 1.027 0 0.897 0.727 1.624 1.624 1.624s1.624-0.727 1.624-1.624c0-0.25-0.058-0.486-0.159-0.698l10.102-9.066c0.275 0.214 0.619 0.342 0.995 0.342 0.276 0 0.535-0.069 0.763-0.19l2.213 2.655c-0.169 0.256-0.268 0.563-0.268 0.892 0 0.897 0.727 1.624 1.624 1.624s1.624-0.727 1.624-1.624c0-0.266-0.091-0.516-0.204-0.738l1.752-1.661v25.249zm-2.156-24.101c-0.282-0.235-0.632-0.377-1.027-0.377-0.331 0-0.633 0.1-0.889 0.27l-2.169-2.607c0.225-0.279 0.363-0.633 0.363-1.02 0-0.897-0.726-1.624-1.624-1.624-0.897 0-1.624 0.727-1.624 1.624 0 0.287 0.075 0.556 0.206 0.79l-10.07 9.038c-0.286-0.252-0.661-0.406-1.072-0.406-0.269 0-0.522 0.067-0.746 0.182l-2.6-4.615c0.262-0.288 0.422-0.67 0.422-1.09 0-0.897-0.727-1.624-1.624-1.624s-1.624 0.727-1.624 1.624c0 0.389 0.137 0.746 0.365 1.026l-11.637 15.726c-0.224-0.117-0.479-0.184-0.75-0.184-0.176 0-0.346 0.029-0.505 0.081l-0.979-2.518c0.438-0.291 0.727-0.788 0.727-1.353 0-0.897-0.727-1.624-1.624-1.624s-1.624 0.727-1.624 1.624c0 0.36 0.118 0.691 0.316 0.96l-0.886 1.116c-0.245-0.148-0.531-0.235-0.838-0.235-0.227 0-0.444 0.047-0.64 0.131l-1.217-1.719c0.278-0.291 0.449-0.685 0.449-1.12 0-0.897-0.727-1.624-1.624-1.624s-1.624 0.727-1.624 1.624c0 0.228 0.047 0.444 0.132 0.641l-6.794 5.897c-0.28-0.228-0.637-0.366-1.026-0.366-0.242 0-0.471 0.055-0.678 0.15l-0.734-1.101c0.271-0.29 0.437-0.678 0.437-1.106 0-0.897-0.727-1.624-1.624-1.624s-1.624 0.727-1.624 1.624c0 0.28 0.071 0.543 0.196 0.773l-0.803 0.777c-0.279-0.224-0.632-0.359-1.017-0.359-0.224 0-0.437 0.045-0.631 0.127l-2.622-5.52c0.334-0.298 0.546-0.73 0.546-1.213 0-0.897-0.727-1.624-1.624-1.624s-1.624 0.727-1.624 1.624c0 0.4 0.146 0.766 0.386 1.049l-2.703 3.508c-0.187-0.076-0.392-0.118-0.606-0.118-0.897 0-1.624 0.727-1.624 1.624 0 0.268-0.233 0.52-0.119 0.742l-4.519 3.163v-39.643h77v16.861l-2.156 2.038z" xmlns="http://www.w3.org/2000/svg"/>
</g>
<g transform="matrix(.89263 0 0 .89263 54.017 1.3583)" featurekey="nameLeftFeature-0">
<path d="m9.3729 17.661c0.18644 0 0.32203 0.13592 0.32203 0.33915v1.678c0 0.16949-0.13559 0.32186-0.32203 0.32186h-8.0169c-0.16949 0-0.25424-0.13543-0.25424-0.30508v-12.932c0-0.16949 0.13559-0.32203 0.32203-0.32203h1.7627c0.18644 0 0.33898 0.15254 0.33898 0.32203v10.898h5.8475zm15.423 1.9659c0.10169 0.20339 0.034229 0.37271-0.20305 0.37271h-1.9831c-0.16949 0-0.27119-0.08458-0.33898-0.22017l-0.91525-1.9322h-6.5256l-0.91525 1.9322c-0.067797 0.13559-0.18644 0.22017-0.33898 0.22017h-2c-0.20339 0-0.32203-0.16933-0.22034-0.37271l6.3898-13.102c0.067797-0.11881 0.15238-0.16966 0.23712-0.16966h0.20339c0.10169 0 0.16949 0.050847 0.23729 0.16966zm-8.9315-3.983h4.4576l-2.2203-4.7288zm23.169-2.9999c1.2712 0.74576 2.0847 1.9998 2.0847 3.4744 0 2.3051-2.0339 3.8814-3.9661 3.8814h-5.5593c-0.18644 0-0.33898-0.15238-0.33898-0.33881v-12.898c0-0.16949 0.13543-0.32203 0.32203-0.32203h4.9831c2.1356 0 3.7966 2.0508 3.7966 3.6271 0 1.0678-0.52542 1.9661-1.322 2.5763zm-2.8983-0.6781c2.2373 0 2.2542-3.1864 0-3.1864h-2.4576v3.1864h2.4576zm0.4069 5.6949c2.6949 0 2.7288-3.4237-0.016949-3.4237h-2.8475v3.4237h2.8644zm13.457 2.4576c3.7966 0 6.8983-3.0507 6.8983-6.9151 0-3.8305-3.1017-6.8814-6.8983-6.8814-3.8305 0-6.9322 3.0508-6.9322 6.8814 0 3.8644 3.1017 6.9151 6.9322 6.9151zm0-2.3388c-2.4407 0-4.5085-2.1017-4.5085-4.5763 0-2.4576 2.0678-4.5422 4.5085-4.5422s4.4915 2.0846 4.4915 4.5422c0 2.4746-2.0508 4.5763-4.4915 4.5763zm19.491-11.356h-1.7798c-0.18644 0-0.32203 0.11864-0.32203 0.33898v8.2203c0 1.7458-1.1186 2.7966-2.9661 2.7966-1.8305 0-2.8983-1.0508-2.8983-2.7966v-8.2203c0-0.20339-0.13559-0.33898-0.32203-0.33898h-1.7458c-0.20339 0-0.35576 0.13559-0.35576 0.33898v8.3051c0 2.8814 1.9661 5.0507 5.322 5.0507 3.3729 0 5.3898-2.1693 5.3898-5.0507v-8.3051c0-0.22034-0.13559-0.33898-0.32203-0.33898zm12.678 0.017c0.16949 0 0.32203 0.13592 0.32203 0.32237v1.6949c0 0.16933-0.15254 0.32186-0.32203 0.32186h-3.8305v10.881c0 0.20339-0.13559 0.33881-0.32203 0.33881h-1.2542c-0.54237 0-0.84746-0.37288-0.84746-0.86441v-10.356h-3.8136c-0.16949 0-0.33898-0.13559-0.33898-0.32203v-1.678c0-0.18644 0.15254-0.33898 0.33898-0.33898h10.068zm4.441 0h-1.6778c-0.18644 0-0.32203 0.15254-0.32203 0.32203v12.898c0 0.18644 0.15254 0.33881 0.33898 0.33881h1.678c0.16933 0 0.32186-0.16933 0.32186-0.33881v-12.898c0-0.16949-0.16949-0.32203-0.33898-0.32203zm15.644 14.288c0.22034 0.18644 0.13559 0.42373-0.016949 0.52542l-1.322 0.81356c-0.42373 0.27119-0.91525 0.16933-1.1525-0.23729l-1.2544-2.0847c-0.69475 0.23729-1.4575 0.37271-2.2541 0.37271-3.8305 0-6.9322-3.0507-6.9322-6.9151 0-3.8305 3.1017-6.8814 6.9322-6.8814 3.7966 0 6.8983 3.0508 6.8983 6.8814 0 2.1525-0.9661 4.0678-2.4746 5.3222l0.64407 1.0846c0.42373 0.66102 0.69492 0.89831 0.9322 1.1186zm-10.508-7.5252c0 1.7966 1.0847 3.3898 2.6102 4.1354-0.16949-0.30508-0.25424-0.64407-0.25424-1.0169 0-1.1356 0.98305-2.1186 2.3559-2.1186 0.91525 0 1.6441 0.35593 2.3729 1.339 0.22034 0.30508 0.38983 0.57627 0.57627 0.88136 0.83051-0.83034 1.339-1.9829 1.339-3.2202 0-2.4576-2.0508-4.5422-4.4915-4.5422s-4.5085 2.0846-4.5085 4.5422zm4.5085 4.5759c0.35593 0 0.67797-0.033898 1.0169-0.11848l-0.20339-0.3222c-0.32203-0.5422-0.62729-0.74559-1.1186-0.74559-0.45763 0-0.77966 0.37288-0.77966 0.79661 0 0.084746 0.016949 0.18644 0.050847 0.27119 0.33898 0.08458 0.67797 0.11848 1.0339 0.11848zm19.237-11.356h-1.7798c-0.18644 0-0.32203 0.11864-0.32203 0.33898v8.2203c0 1.7458-1.1186 2.7966-2.9661 2.7966-1.8305 0-2.8983-1.0508-2.8983-2.7966v-8.2203c0-0.20339-0.13559-0.33898-0.32203-0.33898h-1.7458c-0.20339 0-0.35576 0.13559-0.35576 0.33898v8.3051c0 2.8814 1.9661 5.0507 5.322 5.0507 3.3729 0 5.3898-2.1693 5.3898-5.0507v-8.3051c0-0.22034-0.13559-0.33898-0.32203-0.33898zm11.373 2.356-6.1697-3.3103e-4v3.4068h3.322c0.18644 0 0.33898 0.15254 0.33898 0.33915v1.6778c0 0.20339-0.13559 0.3222-0.33898 0.3222h-3.322v3.1356h6.1695c0.18644 0 0.33881 0.15238 0.33881 0.33881v1.6613c0 0.18644-0.15238 0.33881-0.33881 0.33881h-8.2542c-0.18644 0-0.33898-0.15238-0.33898-0.33881v-12.898c0-0.16949 0.13559-0.32203 0.3222-0.32203h8.2712c0.18644 0 0.33881 0.15254 0.33881 0.32203v1.6949c0 0.18644-0.15238 0.32203-0.33881 0.32203zm12.051-2.339c4.4068 0 6.9661 3.5424 6.9661 6.7288 0 3.6102-2.5763 6.8303-6.9661 6.8303h-4.4746c-0.18644 0-0.33898-0.15238-0.33898-0.33881v-12.898c0-0.16949 0.13559-0.32203 0.32203-0.32203h4.4915zm0 11.22c2.7966 0 4.4746-2.1866 4.4576-4.5086 0-2.288-1.5932-4.3727-4.4576-4.3727h-2.4068l0.016949 8.8814h2.3898zm17.763-8.8812-6.1697-3.3103e-4v3.4068h3.322c0.18644 0 0.33898 0.15254 0.33898 0.33915v1.6778c0 0.20339-0.13559 0.3222-0.33898 0.3222h-3.322v3.1356h6.1695c0.18644 0 0.33881 0.15238 0.33881 0.33881v1.6613c0 0.18644-0.15238 0.33881-0.33881 0.33881h-8.2542c-0.18644 0-0.33898-0.15238-0.33898-0.33881v-12.898c0-0.16949 0.13559-0.32203 0.3222-0.32203h8.2712c0.18644 0 0.33881 0.15254 0.33881 0.32203v1.6949c0 0.18644-0.15238 0.32203-0.33881 0.32203z"/>
</g>
<g transform="matrix(.89263 0 0 .89263 209.01 1.3583)" featurekey="nameRightFeature-0">
<path d="m13.746 18.712c0.13559 0 0.20339 0.084912 0.20339 0.23729v0.83051c0 0.15254-0.067797 0.22017-0.20339 0.22017h-7.9492c-0.15254 0-0.20339-0.10153-0.20339-0.22017v-13.119c0-0.15254 0.067797-0.22034 0.22034-0.22034h0.89831c0.13559 0 0.22034 0.067797 0.22034 0.22034v12.051h6.8136zm1.8475-7.3561c-0.11864 0-0.20356-0.084746-0.20356-0.20339v-4.1695c0-0.11864 0.067797-0.20339 0.20339-0.20339h0.79661c0.11864 0 0.20339 0.067797 0.18644 0.20339l-0.22034 4.1695c-0.016784 0.13559-0.08458 0.20339-0.20339 0.20339h-0.55916zm3.9322-4.9149h-0.86441c-0.15254 0-0.22034 0.067797-0.22034 0.22034v13.119c0 0.13559 0.067797 0.22017 0.22034 0.22017h0.88136c0.11864 0 0.20339-0.08458 0.20339-0.22017v-13.119c0-0.15254-0.084746-0.22034-0.22034-0.22034zm14.254 0c0.11864 0 0.20356 0.067631 0.20356 0.18627v13.186c0 0.11881-0.084746 0.18644-0.20339 0.18644h-0.35593c-0.25441 0-0.49169-0.16933-0.81373-0.52525l-8.9153-10.525v10.831c0 0.13559-0.084746 0.22017-0.22034 0.22017h-0.88136c-0.15254 0-0.22034-0.08458-0.22034-0.22017v-13.136c0-0.11864 0.067797-0.20339 0.20339-0.20339h0.55932c0.11864 0 0.20339 0.050847 0.32203 0.18644l9.2034 10.932v-10.932c0-0.11864 0.067797-0.18644 0.18644-0.18644h0.9322zm10.813 0c0.15254 0 0.23729 0.085076 0.23729 0.22068v0.84746c0 0.13559-0.084746 0.22034-0.23729 0.22034h-7.1695v4.9659h4.3559c0.13559 0 0.22034 0.067797 0.22034 0.23729v0.81339c0 0.15254-0.067797 0.22034-0.22034 0.22034h-4.3559v5.8136c0 0.13559-0.067797 0.22017-0.20339 0.22017h-0.67797c-0.28797 0-0.44051-0.18644-0.44051-0.45763v-12.881c0-0.15254 0.067797-0.22034 0.22017-0.22034h8.2712zm7.8816 13.678c3.8305 0 6.9492-3.0337 6.9492-6.8981 0-3.8475-3.1186-6.8983-6.9492-6.8983-3.8475 0-6.9661 3.0508-6.9661 6.8983 0 3.8644 3.1186 6.8981 6.9661 6.8981zm0-1.2879c-3.0847 0-5.6441-2.5085-5.6441-5.6102s2.5593-5.6102 5.6441-5.6102c3.0846 0 5.61 2.5085 5.61 5.6102s-2.5254 5.6102-5.61 5.6102zm18.813 0.93218c0.084746 0.13559 0.033732 0.23712-0.11881 0.23712h-0.88136c-0.27119 0-0.45763-0.22017-0.55932-0.37271l-3-4.2542h-0.050847-3.8814v4.3898c0 0.15254-0.067797 0.23712-0.23729 0.23712h-0.88136c-0.15254 0-0.22034-0.08458-0.22034-0.23712v-13.102c0-0.15254 0.067797-0.22034 0.22034-0.22034h5c3.1695 0 4.6273 2.4576 4.6273 4.4746 0 1.7288-1.0508 3.7288-3.2712 4.3051zm-8.4912-12.034 1.6552e-4 6.3727h3.7797c2.3051 0 3.4066-1.6102 3.4066-3.2203 0-1.5932-1.1186-3.1524-3.4068-3.1524h-3.7797zm25.983-1.288c0.11864 0 0.20339 0.10186 0.20339 0.23746v13.085c0 0.15254-0.084746 0.23712-0.22034 0.23712h-0.88136c-0.16949 0-0.23729-0.08458-0.23729-0.23712v-10.61l-6.1697 10.407c-0.067797 0.11864-0.13559 0.16949-0.25424 0.16949h-0.067797c-0.10169 0-0.18644-0.050847-0.25424-0.16949l-6.1525-10.407v10.61c0 0.15254-0.084746 0.23712-0.22034 0.23712h-0.88136c-0.15254 0-0.23729-0.08458-0.23729-0.23712v-13.102c0-0.11881 0.067797-0.22051 0.20339-0.22051h0.81356c0.11864 0 0.18644 0.050847 0.25424 0.15271l6.5086 10.983 6.5254-10.983c0.050847-0.10186 0.11864-0.15271 0.27119-0.15271h0.79661zm15.543 13.339c0.067797 0.13559 0.034229 0.22017-0.11831 0.22017h-1.0339c-0.11864 0-0.18644-0.050847-0.23729-0.15254l-1.1864-2.5254h-8.1864l-1.1864 2.5254c-0.050847 0.10169-0.11848 0.15254-0.22034 0.15254h-1.0678c-0.11864 0-0.18644-0.08458-0.11864-0.22017l6.3558-13.271c0.067797-0.11864 0.11864-0.15254 0.20322-0.15254h0.23745c0.084746 0 0.15254 0.033898 0.20339 0.15254zm-10.186-3.6779h7.0339l-3.5254-7.4576zm20.119-9.6609c0.15254 0 0.22051 0.067797 0.22051 0.22034v0.84746c0 0.13559-0.067797 0.22034-0.22034 0.22034h-4.3729v12.034c0 0.15254-0.067797 0.23712-0.20339 0.23712h-0.67797c-0.30508 0-0.45763-0.18644-0.45763-0.47441v-11.797h-4.3729c-0.15254 0-0.23729-0.084746-0.23729-0.22034v-0.83051c0-0.16949 0.084746-0.23729 0.23729-0.23729h10.085zm3.4235 0h-0.86441c-0.15254 0-0.22034 0.067797-0.22034 0.22034v13.119c0 0.13559 0.067797 0.22017 0.22034 0.22017h0.88136c0.11864 0 0.20339-0.08458 0.20339-0.22017v-13.119c0-0.15254-0.084746-0.22034-0.22034-0.22034zm15.508 14.39c0.18644 0.16949 0.11881 0.33864 1.6552e-4 0.40644l-0.67797 0.42373c-0.25424 0.16966-0.50864 0.084912-0.64424-0.15238l-1.3559-2.1863c-0.98305 0.50847-2.0847 0.79644-3.2712 0.79644-3.8475 0-6.9661-3.0337-6.9661-6.8981 0-3.8475 3.1186-6.8983 6.9661-6.8983 3.8305 0 6.9492 3.0508 6.9492 6.8983 0 2.1695-1 4.0847-2.5424 5.3559l0.62712 1.0339c0.42373 0.67797 0.67797 1 0.91525 1.2203zm-11.593-7.6103c0 3.1017 2.5592 5.61 5.6439 5.61l-0.18644-0.016949c-0.74576-0.35576-1.0678-0.98288-1.0678-1.5931 0-1.1356 0.89831-2 2.1017-2 0.88136 0 1.5932 0.37305 2.2373 1.2712 0.20339 0.27119 0.40678 0.59322 0.62712 0.9322 1.1695-1.0339 1.8983-2.5254 1.8983-4.2034 0-3.1017-2.5254-5.6102-5.61-5.6102-3.0847 0-5.6441 2.5085-5.6441 5.6102zm5.949 5.593c0.81356-0.033898 1.5763-0.25424 2.2712-0.61017l-0.49153-0.77966c-0.38983-0.64407-0.86441-0.89831-1.5085-0.89831-0.62712 0-1.1356 0.52542-1.1356 1.1864 0 0.42373 0.25424 0.86441 0.86441 1.1017zm19.051-12.372h-0.89797c-0.16949 0-0.23729 0.050847-0.23729 0.22051v8.1524c0 2.8305-2.1186 4.0169-4.0341 4.0169-1.8644 0-3.9492-1.1864-3.9492-4.0169v-8.1524c0-0.15254-0.067797-0.22034-0.22034-0.22034h-0.88136c-0.16949 0-0.23729 0.067797-0.23729 0.22034v8.3388c0.016784 2.7292 1.9659 5.1186 5.288 5.1186 3.339 0 5.3559-2.3895 5.3729-5.1186v-8.3388c0-0.16966-0.067797-0.22051-0.20339-0.22051zm11.356 1.288-7.3556 4.9656e-4v4.9659h4.5424c0.15254 0 0.23729 0.067797 0.23729 0.23729v0.81339c0 0.15254-0.084746 0.22034-0.23729 0.22034h-4.5424v4.7458h7.3559c0.15254 0 0.23712 0.084746 0.23712 0.23712v0.81356c0 0.16949-0.067797 0.23712-0.23729 0.23712h-8.4746c-0.15254 0-0.22034-0.08458-0.22034-0.22017v-13.119c0-0.15254 0.084746-0.22034 0.22034-0.22034h8.4746c0.15254 0 0.23712 0.084746 0.23712 0.22034v0.84746c0 0.13559-0.067797 0.22034-0.23729 0.22034z"/>
</g>
</svg>